# xmcd CD database file
#
# Track frame offsets:
#	150
#	37133
#	59449
#	86678
#	103415
#	115202
#	142088
#	180118
#	209311
#	238551
#	263040
#
# Disc length: 4056 seconds
#
# Revision: 0
# Processed by: cddbd v1.5.2PL0 Copyright (c) Steve Scherf et al.
# Submitted via: CDex 2.21
#
DISCID=9e0fd60b
DTITLE=Melissa Aldana - Visions
DYEAR=2019
DGENRE=Jazz
TTITLE0=Visions
TTITLE1=Acceptance
TTITLE2=La Madrina
TTITLE3=Perdon
TTITLE4=Abre Tus Ojes
TTITLE5=Elsewhere
TTITLE6=Dos Casas, Un Puente
TTITLE7=Never Let Me Go
TTITLE8=The Search
TTITLE9=Su Trajedia
TTITLE10=el Castillo de Velenje
EXTD=YEAR: 2019
EXTT0=
EXTT1=
EXTT2=
EXTT3=
EXTT4=
EXTT5=
EXTT6=
EXTT7=
EXTT8=
EXTT9=
EXTT10=
PLAYORDER=
